<svg xmlns="http://www.w3.org/2000/svg" viewBox="0 0 64 64"><defs><linearGradient id="h" x1="0%" y1="0%" x2="100%" y2="100%"><stop offset="0%" stop-color="#DA291C"/><stop offset="35%" stop-color="#F1BF00"/><stop offset="70%" stop-color="#0033A0"/><stop offset="100%" stop-color="#008C45"/></linearGradient></defs><rect width="64" height="64" rx="14" fill="#0a0e1a"/><g fill="none" stroke="url(#h)" stroke-width="2.4" stroke-linecap="round" stroke-linejoin="round"><path d="M32 18 L32 46"/><path d="M32 24 C 24 22, 20 16, 16 12"/><path d="M32 24 C 40 22, 44 16, 48 12"/><path d="M32 30 C 22 30, 16 26, 12 22"/><path d="M32 30 C 42 30, 48 26, 52 22"/><path d="M32 20 C 28 14, 30 10, 32 6"/><path d="M32 20 C 36 14, 34 10, 32 6"/><path d="M32 44 C 24 46, 20 52, 16 56"/><path d="M32 44 C 40 46, 44 52, 48 56"/><path d="M32 40 C 22 40, 16 44, 12 48"/><path d="M32 40 C 42 40, 48 44, 52 48"/><path d="M32 48 C 28 54, 30 58, 32 60"/><path d="M32 48 C 36 54, 34 58, 32 60"/></g><circle cx="32" cy="32" r="2.6" fill="url(#h)"/></svg>
